# xmcd
#
# Track frame offsets:
#	150
#	12563
#	22988
#	33038
#	43238
#	53063
#	63488
#	75488
#	87938
#	100838
#	111413
#	121538
#	132904
#	145204
#	155742
#	167396
#	179546
#	191434
#	201297
#	211910
#	222185
#	233039
#	245864
#	258239
#	268627
#	280852
#	294277
#	307590
#
# Disc length: 4250 seconds
#
# Revision: 1
# Processed by: cddbd v1.5.2PL0 Copyright (c) Steve Scherf et al.
# Submitted via: EasyCDDAExtractor 16.0.6.1
#
DISCID=8510981c
DTITLE=Little Willie John - Mister Little Willie John and Talk to Me
DYEAR=2010
DGENRE=Soul
TTITLE0=You're a Sweetheart
TTITLE1=Let's Rock While the Rockin's Good
TTITLE2=Look What You've Done to Me
TTITLE3=Home at Last
TTITLE4=Are You Ever Coming Back
TTITLE5=Don't Leave Me My Dear
TTITLE6=All My Love Belongs to You
TTITLE7=Spasms
TTITLE8=Will the Sun Shine Tomorrow
TTITLE9=You Got to Get Up Early in the Morning
TTITLE10=A Little Bit of Loving
TTITLE11=Why Don't You Haul Off and Love Me
TTITLE12=Talk to Me, Talk to Me
TTITLE13=I've Been Around
TTITLE14=Drive Me Home
TTITLE15=I'll Carry Your Love Wherever I Go
TTITLE16=No More in Life
TTITLE17=Uh Uh Baby
TTITLE18=Person to Person
TTITLE19=Until You Do
TTITLE20=Tell It Like It Is
TTITLE21=Don't Be Ashamed to Call My Name
TTITLE22=If I Thought You Need Me
TTITLE23=There Is Someone in This World for Me
TTITLE24=Fever
TTITLE25=Do Something for Me
TTITLE26=All Around the World
TTITLE27=Letter from My Darling
EXTD=
EXTT0=
EXTT1=
EXTT2=
EXTT3=
EXTT4=
EXTT5=
EXTT6=
EXTT7=
EXTT8=
EXTT9=
EXTT10=
EXTT11=
EXTT12=
EXTT13=
EXTT14=
EXTT15=
EXTT16=
EXTT17=
EXTT18=
EXTT19=
EXTT20=
EXTT21=
EXTT22=
EXTT23=
EXTT24=
EXTT25=
EXTT26=
EXTT27=
PLAYORDER=
